<svg width="19" height="24" viewBox="0 0 19 24" fill="none" xmlns="http://www.w3.org/2000/svg">
<path d="M12.9326 3.82775C13.3737 3.30492 13.71 2.69763 13.9223 2.04075C14.1345 1.38387 14.2185 0.690347 14.1694 0C12.8152 0.112417 11.5581 0.767416 10.669 1.82388C10.2432 2.33022 9.92056 2.91926 9.72014 3.55614C9.51971 4.19301 9.44559 4.86477 9.50216 5.53163C10.1627 5.53729 10.8157 5.38656 11.4106 5.09109C12.0055 4.79563 12.5262 4.36336 12.9326 3.82775ZM15.8729 12.7552C15.8808 11.8357 16.1163 10.9335 16.5572 10.1336C16.9982 9.33368 17.6301 8.66253 18.3933 8.18346C17.9116 7.46979 17.2749 6.88134 16.5336 6.46478C15.7924 6.04822 14.9669 5.815 14.1227 5.78362C12.3025 5.59163 10.6223 6.87554 9.65385 6.87554C8.6854 6.87554 7.32023 5.80761 5.80338 5.83161C4.81174 5.86521 3.84549 6.16253 2.99889 6.69458C2.15228 7.22663 1.45422 7.97525 0.972782 8.86741C-1.0808 12.5392 0.447717 17.9988 2.5013 20.9626C3.43475 22.4145 4.60156 24.0584 6.14175 23.9984C7.68194 23.9384 8.18367 23.0145 9.96889 23.0145C11.7541 23.0145 12.3025 23.9984 13.8194 23.9624C15.3362 23.9264 16.4097 22.4745 17.3898 21.0226C18.0841 19.9685 18.6265 18.8167 19 17.6028C18.0753 17.1973 17.2863 16.522 16.7306 15.6605C16.1749 14.799 15.8767 13.789 15.8729 12.7552Z" fill="white"/>
</svg>
