<svg width="23" height="24" viewBox="0 0 23 24" fill="none" xmlns="http://www.w3.org/2000/svg">
<g clip-path="url(#clip0_50_188)">
<path d="M16.7261 15.6679C19.5156 14.1067 21.6303 12.9172 21.8126 12.8247C22.3957 12.5086 22.9978 11.6721 21.8126 11.0224C21.4299 10.818 19.3696 9.66552 16.7261 8.17918L13.0616 11.9513L16.7261 15.6678V15.6679Z" fill="#FFD900"/>
<path d="M13.0616 11.9513L1.39323 23.9375C1.66712 23.9745 1.97632 23.9005 2.34087 23.6962C3.10623 23.2692 11.2198 18.7531 16.7261 15.6688L13.0616 11.9513Z" fill="#F43249"/>
<path d="M13.0616 11.9513L16.7261 8.19775C16.7261 8.19775 3.16158 0.652555 2.34087 0.207153C2.03167 0.0204963 1.68517 -0.0349489 1.37511 0.0204963L13.0616 11.9513Z" fill="#00EE76"/>
<path d="M13.0616 11.9513L1.3751 0.0204964C0.900812 0.132263 0.5 0.559358 0.5 1.43282V22.5252C0.5 23.3247 0.810148 23.9005 1.39323 23.956L13.0616 11.9513Z" fill="#00D3FF"/>
</g>
<defs>
<clipPath id="clip0_50_188">
<rect width="22" height="24" fill="white" transform="translate(0.5)"/>
</clipPath>
</defs>
</svg>
